<?xml version="1.0" standalone="no"?>
<!DOCTYPE svg PUBLIC "-//W3C//DTD SVG 20010904//EN"
 "http://www.w3.org/TR/2001/REC-SVG-20010904/DTD/svg10.dtd">
<svg version="1.0" xmlns="http://www.w3.org/2000/svg"
 width="2700.000000pt" height="731.000000pt" viewBox="0 0 2700.000000 731.000000"
 preserveAspectRatio="xMidYMid meet">

<g transform="translate(0.000000,731.000000) scale(0.100000,-0.100000)"
fill="#000000" stroke="none">
<path d="M3710 5964 c-48 -5 -171 -26 -285 -50 -167 -35 -399 -122 -575 -216
-81 -43 -217 -130 -256 -163 -7 -5 -41 -32 -76 -60 -94 -74 -291 -279 -359
-374 -219 -307 -329 -598 -360 -956 -13 -158 -1 -389 26 -505 38 -159 47 -187
90 -310 49 -135 179 -361 289 -498 131 -164 376 -380 551 -484 71 -42 279
-148 291 -148 5 0 22 -7 37 -15 80 -41 374 -120 547 -146 117 -18 551 -18 650
-1 195 35 238 44 280 57 25 8 75 23 112 34 261 80 576 253 763 420 155 140
355 371 355 411 0 29 -120 95 -215 119 -87 22 -180 24 -256 6 -76 -18 -186
-67 -217 -95 -27 -26 -162 -123 -225 -163 -133 -85 -342 -176 -492 -213 -343
-87 -730 -65 -1055 59 -452 171 -798 525 -928 947 -47 150 -57 221 -56 385 2
266 71 486 222 715 58 87 73 106 152 190 96 103 257 230 375 295 120 66 314
143 430 169 155 36 255 48 420 48 294 1 515 -48 771 -172 168 -81 307 -178
452 -314 183 -172 249 -205 427 -213 113 -5 156 3 266 51 63 27 66 37 24 112
-139 253 -351 491 -593 664 -227 164 -529 302 -787 360 -198 45 -262 52 -505
55 -135 1 -265 1 -290 -1z"/>
<path d="M15437 5933 c-17 -16 3 -138 36 -216 62 -146 225 -281 384 -319 31
-7 271 -13 698 -17 l650 -6 5 -1440 c5 -1348 6 -1444 23 -1500 57 -190 204
-341 377 -388 87 -23 118 -27 145 -17 l25 9 2 1668 3 1668 655 5 c723 7 705 5
834 73 85 44 193 155 233 237 35 72 66 187 61 222 l-3 23 -2061 3 c-1133 1
-2064 -1 -2067 -5z"/>
<path d="M22495 5931 c-99 -17 -164 -53 -247 -134 -47 -47 -128 -163 -128
-184 0 -4 -15 -39 -34 -77 -18 -39 -42 -91 -54 -116 -11 -25 -36 -79 -55 -120
-59 -127 -94 -203 -121 -262 -14 -32 -41 -91 -60 -130 -19 -40 -69 -149 -111
-243 -42 -93 -89 -197 -105 -230 -15 -33 -39 -85 -53 -115 -14 -31 -44 -95
-66 -144 -23 -48 -41 -89 -41 -91 0 -1 -27 -60 -60 -129 -33 -70 -60 -128 -60
-130 0 -3 -27 -61 -60 -131 -33 -70 -60 -128 -60 -130 0 -2 -27 -60 -60 -129
-33 -69 -60 -127 -60 -129 0 -3 -20 -47 -44 -98 -24 -52 -64 -139 -89 -194
-50 -111 -95 -209 -137 -300 -16 -33 -67 -145 -115 -250 -148 -322 -156 -339
-176 -378 -35 -70 -33 -71 90 -64 159 9 285 40 417 103 137 65 236 163 283
280 10 27 42 98 70 157 28 59 51 110 51 112 0 2 18 43 40 90 22 47 40 88 40
90 0 19 76 157 90 165 21 11 1987 15 2015 4 9 -4 32 -41 52 -83 19 -42 43 -94
53 -116 10 -22 64 -136 119 -253 56 -117 101 -216 101 -220 0 -11 102 -128
130 -150 87 -67 211 -114 364 -137 101 -16 227 -17 241 -3 4 3 -14 50 -39 103
-25 54 -46 99 -46 101 0 1 -20 45 -44 96 -24 51 -81 174 -126 273 -45 99 -104
226 -131 283 -27 56 -49 104 -49 107 0 2 -25 56 -55 120 -30 65 -55 122 -55
128 0 6 -6 18 -13 26 -7 9 -27 48 -44 86 -43 96 -183 403 -226 495 -19 41 -45
98 -57 125 -38 85 -140 306 -177 385 -19 41 -51 111 -70 155 -20 44 -39 85
-43 90 -4 6 -31 64 -60 130 -29 66 -75 166 -101 222 -27 57 -49 105 -49 107 0
3 -24 55 -54 118 -75 160 -112 240 -159 343 -55 123 -99 190 -165 254 -106
102 -252 147 -397 122z m140 -763 c54 -121 178 -394 227 -498 27 -58 61 -132
75 -165 14 -33 29 -64 33 -70 4 -5 23 -46 43 -90 19 -44 54 -120 77 -170 67
-145 86 -186 120 -260 18 -38 54 -117 81 -175 26 -58 50 -117 51 -130 l3 -25
-735 -3 c-404 -1 -745 0 -758 3 -29 7 -28 11 50 175 33 69 71 152 85 185 14
33 35 80 48 105 13 25 30 61 38 80 24 57 116 259 152 335 31 66 58 124 118
255 40 89 87 191 117 255 26 55 41 90 95 213 27 60 46 55 80 -20z"/>
<path d="M19763 4188 c2 -1653 3 -1745 20 -1788 67 -167 206 -298 372 -352 53
-17 149 -26 163 -15 9 7 12 359 12 1697 0 1634 -1 1689 -19 1761 -30 114 -41
139 -93 210 -94 131 -266 229 -401 229 l-57 0 3 -1742z"/>
<path d="M7284 4830 c-154 -11 -366 -57 -459 -100 -11 -5 -55 -23 -98 -40
-300 -122 -597 -402 -726 -685 -18 -38 -36 -77 -40 -85 -4 -8 -16 -42 -25 -75
-10 -33 -22 -71 -27 -85 -5 -14 -13 -56 -19 -95 -6 -38 -15 -105 -22 -147 -8
-58 -8 -100 1 -175 23 -187 29 -218 50 -280 11 -34 21 -68 21 -75 0 -20 111
-236 153 -300 195 -291 528 -515 922 -617 229 -59 590 -58 845 3 141 33 373
123 421 163 8 7 19 13 23 13 9 0 82 47 149 98 218 165 355 342 469 607 9 22
18 50 51 165 19 66 21 101 22 300 0 238 -7 288 -63 450 -114 326 -369 611
-697 777 -228 115 -412 166 -664 184 -139 9 -130 9 -287 -1z m329 -564 c351
-57 627 -246 755 -518 37 -77 49 -117 67 -231 22 -131 -4 -285 -71 -420 -123
-246 -378 -426 -699 -493 -108 -23 -340 -23 -455 0 -738 145 -1028 896 -534
1381 227 224 601 335 937 281z"/>
<path d="M10155 4830 c-282 -26 -551 -168 -734 -385 -113 -134 -176 -255 -223
-430 -21 -79 -22 -94 -25 -1032 l-4 -953 46 0 c87 0 213 48 301 114 59 44 131
139 173 226 l36 75 6 705 c3 447 9 718 16 740 17 56 24 72 61 130 109 176 337
282 542 252 227 -33 398 -167 460 -361 19 -61 20 -89 20 -720 0 -620 1 -660
20 -734 49 -193 176 -335 357 -398 69 -24 158 -40 178 -32 13 4 15 125 15 907
0 943 0 937 43 1039 50 117 189 234 329 277 201 61 389 21 561 -120 50 -41
129 -168 150 -240 7 -22 13 -302 17 -730 4 -539 9 -703 19 -730 52 -140 146
-262 249 -323 69 -42 169 -75 237 -79 l50 -3 3 910 c3 977 2 1000 -49 1157
-59 182 -191 376 -329 482 -204 158 -388 234 -614 256 -110 10 -317 -1 -381
-20 -16 -5 -57 -17 -90 -26 -132 -38 -294 -129 -397 -224 -65 -59 -99 -73
-115 -47 -12 20 -122 110 -177 145 -211 136 -477 197 -751 172z"/>
<path d="M14690 4829 c-272 -35 -501 -119 -728 -268 -108 -71 -267 -226 -342
-333 -112 -159 -195 -361 -230 -558 -19 -105 -20 -156 -18 -1377 l3 -1268 59
2 c208 7 420 187 477 406 18 66 19 129 19 1063 0 839 2 1005 15 1080 8 49 20
98 25 109 5 11 18 43 29 72 47 122 168 265 296 351 204 136 507 202 766 166
95 -13 207 -42 215 -55 3 -5 13 -9 22 -9 23 0 138 -60 203 -106 121 -85 221
-202 284 -334 58 -120 69 -175 70 -345 0 -150 -2 -165 -28 -237 -34 -94 -65
-152 -116 -221 -184 -247 -464 -377 -814 -377 -296 0 -553 82 -708 227 -42 40
-49 36 -73 -49 -24 -82 -22 -242 4 -329 40 -134 151 -264 280 -329 180 -89
592 -106 910 -36 391 85 749 347 946 691 219 381 228 870 24 1276 -118 233
-247 378 -496 552 -82 57 -282 150 -379 177 -151 40 -191 49 -264 59 -96 12
-354 13 -451 0z"/>
<path d="M24783 2751 c-67 -23 -113 -58 -152 -117 -31 -47 -38 -82 -33 -167 7
-114 125 -213 268 -225 165 -13 319 114 318 263 0 74 -53 167 -119 211 -83 55
-185 68 -282 35z m227 -69 c105 -53 146 -157 100 -255 -12 -26 -34 -56 -49
-67 -14 -11 -31 -24 -38 -30 -21 -17 -97 -40 -137 -40 -49 0 -136 31 -136 48
0 8 11 23 25 34 18 14 25 29 25 54 0 33 1 34 42 34 37 0 47 -5 88 -50 47 -50
63 -58 90 -40 11 7 12 13 5 23 -52 72 -50 63 -16 102 44 50 38 115 -14 149
-32 21 -233 26 -245 6 -5 -8 -10 -77 -10 -152 0 -131 -1 -138 -20 -138 -30 0
-70 86 -70 151 0 62 39 132 83 150 15 6 31 17 35 24 10 18 89 35 142 29 25 -2
70 -16 100 -32z m-91 -81 c40 -1 64 -26 51 -52 -8 -15 -22 -19 -58 -19 -27 0
-52 -4 -57 -9 -6 -5 -20 -12 -32 -16 -22 -6 -23 -3 -23 39 0 50 11 62 59 60
17 -1 44 -2 60 -3z"/>
</g>
</svg>
