<?xml version="1.0" standalone="no"?>
<!DOCTYPE svg PUBLIC "-//W3C//DTD SVG 20010904//EN"
 "http://www.w3.org/TR/2001/REC-SVG-20010904/DTD/svg10.dtd">
<svg version="1.0" xmlns="http://www.w3.org/2000/svg"
 width="450.000000pt" height="250.000000pt" viewBox="0 0 450.000000 250.000000"
 preserveAspectRatio="xMidYMid meet">

<g transform="translate(0.000000,250.000000) scale(0.100000,-0.100000)"
fill="#000000" stroke="none">
<path d="M3095 1670 c10 -11 20 -20 23 -20 3 0 -3 9 -13 20 -10 11 -20 20 -23
20 -3 0 3 -9 13 -20z"/>
<path d="M1883 1603 c9 -2 23 -2 30 0 6 3 -1 5 -18 5 -16 0 -22 -2 -12 -5z"/>
<path d="M1129 1563 c-13 -16 -12 -17 4 -4 9 7 17 15 17 17 0 8 -8 3 -21 -13z"/>
<path d="M1364 1398 l-19 -23 23 19 c21 18 27 26 19 26 -2 0 -12 -10 -23 -22z"/>
<path d="M1699 1373 c-13 -16 -12 -17 4 -4 9 7 17 15 17 17 0 8 -8 3 -21 -13z"/>
<path d="M1736 1295 c-11 -8 -15 -15 -9 -15 6 0 16 7 23 15 16 19 11 19 -14 0z"/>
<path d="M2276 1197 c3 -10 9 -15 12 -12 3 3 0 11 -7 18 -10 9 -11 8 -5 -6z"/>
<path d="M2251 1114 c0 -11 3 -14 6 -6 3 7 2 16 -1 19 -3 4 -6 -2 -5 -13z"/>
<path d="M190 913 l-25 -4 3 -124 c2 -69 -1 -132 -7 -143 -9 -16 -5 -18 28
-19 39 -1 39 -1 25 26 -21 39 -18 118 4 124 16 4 16 5 -1 6 -16 1 -18 9 -15
64 l3 62 77 0 c64 -1 83 -5 108 -23 l29 -22 -8 22 c-6 16 -20 25 -47 30 -41 7
-131 8 -174 1z"/>
<path d="M2146 891 c24 -19 48 -63 105 -190 l37 -84 21 41 c24 47 27 65 7 37
-12 -16 -19 -7 -72 98 -56 110 -61 117 -89 117 l-30 -1 21 -18z"/>
<path d="M2406 894 c-9 -24 -7 -31 4 -14 7 10 10 -26 10 -110 0 -75 -4 -130
-10 -136 -8 -8 2 -11 30 -11 28 0 38 3 30 11 -6 6 -10 64 -10 143 l0 133 -24
0 c-13 0 -27 -7 -30 -16z"/>
<path d="M458 762 c2 -37 -1 -85 -6 -105 -10 -34 -9 -37 11 -37 21 0 22 3 19
105 -2 74 -7 105 -15 105 -9 0 -12 -19 -9 -68z"/>
<path d="M598 814 c26 -18 28 -36 7 -54 -9 -7 -14 -15 -11 -17 7 -8 43 16 50
32 7 19 -27 55 -51 55 -14 0 -13 -3 5 -16z"/>
<path d="M710 741 c0 -49 -2 -95 -5 -103 -3 -8 4 -14 20 -14 21 -2 23 1 15 12
-7 7 -11 32 -10 56 4 86 0 138 -10 138 -6 0 -10 -36 -10 -89z"/>
<path d="M840 826 c0 -2 9 -6 20 -9 11 -3 20 -1 20 4 0 5 -9 9 -20 9 -11 0
-20 -2 -20 -4z"/>
<path d="M944 726 c0 -89 2 -104 15 -103 14 1 16 16 13 104 -2 71 -7 103 -15
103 -8 0 -12 -31 -13 -104z"/>
<path d="M1096 816 c21 -15 30 -14 19 3 -3 6 -14 11 -23 11 -13 0 -13 -2 4
-14z"/>
<path d="M1178 725 c-3 -102 -2 -104 19 -103 16 2 19 6 14 18 -4 8 -6 54 -5
103 3 69 1 87 -11 87 -11 0 -14 -23 -17 -105z"/>
<path d="M1337 806 c24 -21 28 -32 28 -74 0 -40 -5 -56 -24 -76 -31 -33 -12
-34 21 -1 48 47 44 113 -8 154 -37 29 -52 27 -17 -3z"/>
<path d="M1467 804 c-14 -14 -29 -38 -32 -54 -8 -34 16 -94 43 -109 19 -10 19
-10 1 26 -11 21 -19 47 -19 59 0 33 18 77 37 92 9 6 12 12 6 12 -6 0 -22 -12
-36 -26z"/>
<path d="M1631 796 c26 -44 22 -114 -7 -148 -19 -21 -19 -21 4 -9 13 7 30 28
39 47 15 31 16 39 3 76 -8 22 -25 48 -38 56 l-23 15 22 -37z"/>
<path d="M1742 802 c13 -16 39 -64 58 -107 27 -63 36 -74 42 -59 12 29 -76
194 -103 194 -20 0 -20 -1 3 -28z"/>
<path d="M1930 828 c-1 -2 -2 -49 -3 -106 -2 -100 -2 -102 21 -102 20 0 21 3
12 21 -7 12 -10 56 -8 105 2 62 0 84 -9 84 -7 0 -13 -1 -13 -2z"/>
<path d="M2567 819 c-50 -29 -59 -120 -16 -165 28 -30 49 -32 23 -3 -14 16
-19 36 -19 79 0 43 5 63 19 79 21 23 20 25 -7 10z"/>
<path d="M2707 811 c32 -30 39 -93 16 -140 -18 -36 -18 -38 -2 -28 50 31 56
113 13 158 -15 16 -32 29 -38 29 -5 0 0 -9 11 -19z"/>
<path d="M2815 726 c0 -87 3 -104 15 -103 12 1 15 14 13 61 -1 34 -2 80 -3
104 0 27 -5 42 -12 42 -10 0 -13 -28 -13 -104z"/>
<path d="M2958 814 c26 -18 29 -49 5 -63 -15 -9 -16 -10 -2 -11 17 0 49 30 49
47 0 16 -35 43 -56 43 -17 0 -16 -1 4 -16z"/>
<path d="M3045 819 c-11 -17 -2 -18 19 -3 17 12 17 14 4 14 -9 0 -20 -5 -23
-11z"/>
<path d="M3138 746 c2 -47 -1 -93 -7 -103 -8 -16 -6 -19 12 -19 21 0 22 4 22
103 0 85 -3 103 -15 103 -12 0 -14 -15 -12 -84z"/>
<path d="M3221 827 c2 -1 12 -9 22 -16 15 -12 17 -12 11 3 -3 9 -13 16 -22 16
-8 0 -13 -1 -11 -3z"/>
<path d="M3316 801 c-50 -52 -36 -136 27 -166 31 -16 32 -16 10 2 -48 39 -53
125 -10 171 11 12 16 22 11 22 -6 0 -23 -13 -38 -29z"/>
<path d="M3482 810 c14 -22 24 -19 15 5 -4 8 -11 15 -17 15 -6 0 -6 -7 2 -20z"/>
<path d="M3648 825 c-3 -3 14 -42 38 -88 24 -45 44 -89 44 -97 0 -9 10 -16 24
-16 l25 -2 -23 37 c-13 20 -40 66 -60 104 -38 69 -39 70 -48 62z"/>
<path d="M3839 801 c-47 -48 -37 -130 21 -164 40 -24 43 -21 9 12 -24 25 -29
38 -29 79 0 35 6 57 21 76 27 35 15 33 -22 -3z"/>
<path d="M4002 810 c9 -13 16 -16 23 -9 7 7 5 13 -5 19 -24 15 -31 11 -18 -10z"/>
<path d="M4090 741 c0 -49 -2 -95 -5 -103 -3 -8 4 -14 20 -14 21 -2 23 1 15
12 -7 7 -11 32 -10 56 4 86 0 138 -10 138 -6 0 -10 -36 -10 -89z"/>
<path d="M4231 827 c2 -1 12 -9 22 -16 15 -12 17 -12 11 3 -3 9 -13 16 -22 16
-8 0 -13 -1 -11 -3z"/>
<path d="M2362 795 c-17 -37 -14 -45 4 -12 9 16 14 31 11 33 -2 2 -9 -7 -15
-21z"/>
<path d="M325 785 c-30 -14 -30 -14 -4 -15 14 0 30 -5 37 -12 9 -9 12 -6 12
15 0 30 -3 31 -45 12z"/>
<path d="M838 747 c-15 -12 -15 -14 3 -25 17 -11 19 -9 19 13 0 29 0 28 -22
12z"/>
<path d="M4218 747 c-15 -12 -15 -14 3 -25 17 -11 19 -9 19 13 0 29 0 28 -22
12z"/>
<path d="M1066 741 c-19 -7 -19 -8 2 -13 15 -4 22 -2 22 8 0 8 -1 14 -2 13 -2
0 -12 -4 -22 -8z"/>
<path d="M560 727 c14 -7 35 -32 46 -56 12 -25 29 -46 38 -47 20 -3 20 -6 -5
45 -11 24 -29 46 -40 48 -10 3 -19 9 -19 14 0 5 -10 9 -22 9 -23 0 -22 -1 2
-13z"/>
<path d="M2921 729 c18 -7 34 -25 48 -58 11 -27 27 -48 36 -48 19 0 19 0 -4
46 -21 41 -59 71 -88 70 -12 0 -9 -4 8 -10z"/>
<path d="M3596 723 c-6 -14 -5 -15 5 -6 7 7 10 15 7 18 -3 3 -9 -2 -12 -12z"/>
<path d="M3475 678 c0 -72 18 -64 28 12 4 29 2 36 -11 36 -14 0 -17 -10 -17
-48z"/>
<path d="M4000 682 c0 -21 -6 -44 -12 -51 -11 -10 -8 -10 15 0 23 10 27 18 27
51 0 27 -4 38 -15 38 -11 0 -15 -11 -15 -38z"/>
<path d="M2140 677 c0 -14 -4 -29 -10 -32 -19 -11 -10 -21 18 -21 28 0 28 0
17 33 -15 44 -25 52 -25 20z"/>
<path d="M1724 652 c-9 -24 -8 -28 7 -28 14 0 17 6 12 26 -3 14 -7 26 -7 27
-1 1 -7 -10 -12 -25z"/>
<path d="M860 639 c-34 -19 -35 -19 -8 -19 17 0 31 8 38 20 6 11 9 19 8 19 -2
-1 -19 -10 -38 -20z"/>
<path d="M3552 648 c-17 -17 -15 -24 7 -25 14 -1 17 3 14 18 -6 22 -6 22 -21
7z"/>
<path d="M4240 639 c-34 -19 -35 -19 -8 -19 17 0 31 8 38 20 6 11 9 19 8 19
-2 -1 -19 -10 -38 -20z"/>
<path d="M1095 634 l-30 -13 27 -1 c15 0 30 5 33 11 11 16 2 17 -30 3z"/>
</g>
</svg>
