<?xml version="1.0" standalone="no"?>
<!DOCTYPE svg PUBLIC "-//W3C//DTD SVG 20010904//EN"
 "http://www.w3.org/TR/2001/REC-SVG-20010904/DTD/svg10.dtd">
<svg version="1.0" xmlns="http://www.w3.org/2000/svg"
 width="225.000000pt" height="225.000000pt" viewBox="0 0 225.000000 225.000000"
 preserveAspectRatio="xMidYMid meet">

<g transform="translate(0.000000,225.000000) scale(0.100000,-0.100000)"
fill="#000000" stroke="none">
<path d="M0 1125 l0 -1125 1125 0 1125 0 0 1125 0 1125 -1125 0 -1125 0 0
-1125z m1615 366 c46 -21 103 -52 127 -69 56 -38 120 -70 183 -92 l50 -18 -28
-12 c-19 -10 -24 -16 -15 -21 20 -13 3 -21 -51 -23 -28 -2 -54 -6 -57 -9 -3
-3 -29 3 -58 15 -90 36 -96 38 -96 33 0 -3 11 -10 25 -15 14 -5 25 -14 25 -20
0 -19 -45 -10 -100 21 -30 16 -49 24 -42 17 17 -17 15 -28 -5 -28 -20 0 -116
72 -156 117 -16 18 -33 33 -37 33 -12 0 60 -73 103 -105 21 -15 35 -30 33 -32
-3 -3 -25 -7 -50 -9 -42 -3 -51 1 -101 41 -30 25 -55 41 -55 37 0 -5 20 -23
45 -41 50 -36 58 -56 20 -49 -13 3 -26 0 -28 -6 -3 -7 -20 -3 -47 12 -41 23
-41 23 -30 2 15 -28 5 -54 -18 -48 -10 3 -23 -1 -30 -9 -18 -19 -35 -6 -29 23
7 37 -55 48 -109 19 -18 -9 -23 -15 -12 -15 9 0 20 5 23 10 6 10 85 14 85 4 0
-3 -5 -14 -10 -25 -13 -23 -30 -25 -30 -4 0 8 -5 15 -11 15 -5 0 -7 -5 -4 -10
3 -6 -4 -14 -17 -19 -16 -7 -18 -10 -6 -10 22 -1 31 -16 23 -40 -6 -19 -55
-26 -55 -7 0 4 -7 6 -15 2 -10 -4 -15 1 -15 15 0 17 -4 19 -22 13 -13 -4 -25
-10 -28 -14 -3 -3 -13 -9 -22 -13 -10 -3 -18 -16 -18 -28 0 -18 -2 -19 -15 -9
-8 7 -15 8 -15 3 0 -5 -9 -9 -21 -9 -17 0 -20 5 -15 28 5 26 4 27 -14 18 -10
-5 -33 -10 -51 -10 -23 0 -54 -15 -105 -50 -67 -46 -124 -65 -124 -40 0 5 -15
1 -32 -10 -33 -20 -88 -27 -88 -12 0 4 6 14 12 22 11 12 10 12 -4 1 -18 -13
-68 -8 -68 7 0 4 32 23 70 42 39 19 70 38 70 42 0 4 23 17 52 30 28 12 46 24
40 26 -7 2 4 23 28 50 39 46 41 69 5 56 -18 -7 -18 -8 0 -14 17 -6 13 -12 -28
-53 -26 -27 -56 -47 -68 -47 -18 0 -15 7 25 51 25 28 46 57 46 64 0 6 11 24
25 39 36 38 15 32 -24 -8 -18 -19 -28 -35 -21 -38 19 -6 -57 -85 -119 -122
-97 -59 -127 -44 -37 18 29 20 62 46 72 58 11 11 -28 -14 -85 -56 -57 -42
-109 -76 -116 -76 -29 0 -20 16 34 55 33 24 62 49 67 57 4 7 -4 3 -17 -8 -54
-47 -132 -95 -146 -90 -13 5 -13 9 -2 23 13 15 12 15 -12 0 -25 -16 -59 -14
-59 3 0 4 15 17 32 28 18 10 96 70 173 131 173 140 201 155 272 149 43 -4 66
-13 113 -47 56 -39 131 -68 117 -44 -10 16 150 76 214 81 44 3 62 0 90 -17 45
-28 52 -27 97 14 22 19 59 44 83 55 59 27 108 21 214 -29z m-1367 -460 c3 -10
0 -12 -14 -7 -11 4 -34 10 -51 13 -32 5 -33 4 -33 -27 0 -32 0 -33 40 -27 29
4 40 2 40 -8 0 -10 -11 -12 -42 -8 l-41 6 6 -41 c4 -36 2 -42 -13 -42 -16 0
-19 10 -22 80 l-3 81 64 -3 c45 -2 66 -7 69 -17z m891 -38 l29 -58 17 39 c9
21 18 36 21 33 7 -6 -36 -107 -45 -107 -4 0 -19 24 -34 53 l-27 52 3 -57 c3
-51 1 -58 -15 -58 -11 0 -17 4 -14 9 3 5 6 41 7 80 2 89 17 93 58 14z m108
-23 c0 -66 -3 -80 -16 -80 -13 0 -16 12 -15 73 2 91 2 87 18 87 10 0 13 -19
13 -80z m-903 34 c18 -7 22 -44 6 -44 -6 0 -4 -14 5 -31 18 -34 10 -56 -9 -25
-6 11 -18 27 -28 37 -15 16 -15 17 4 22 28 8 17 31 -15 35 -26 3 -27 2 -25
-49 2 -34 -2 -54 -10 -57 -9 -3 -12 13 -12 57 l0 61 34 0 c19 0 41 -3 50 -6z
m134 -12 c3 -11 0 -12 -16 -3 -43 23 -52 15 -52 -44 0 -41 -4 -55 -15 -55 -11
0 -14 13 -12 60 l2 61 44 -3 c26 -2 46 -9 49 -16z m42 -7 c0 -14 6 -25 13 -26
10 0 10 -2 0 -6 -15 -6 -17 -35 -3 -49 6 -6 3 -10 -10 -11 -18 -2 -20 5 -20
58 0 33 4 59 10 59 6 0 10 -11 10 -25z m70 15 c0 -6 -11 -8 -27 -4 -40 10 -41
14 -5 14 18 0 32 -5 32 -10z m120 -10 c11 -11 20 -27 20 -36 0 -24 -19 -54
-36 -54 -13 0 -13 3 0 23 19 28 1 70 -32 75 -20 3 -22 -1 -22 -47 0 -39 4 -51
18 -54 9 -3 3 -5 -15 -6 l-32 -1 0 60 1 60 39 0 c26 0 46 -7 59 -20z m141 -1
c35 -35 6 -98 -46 -99 -54 -1 -86 67 -49 104 22 22 70 20 95 -5z m71 -20 l25
-42 16 42 c24 58 37 51 37 -19 0 -68 -19 -84 -21 -17 l-1 42 -16 -37 c-10 -21
-20 -38 -24 -38 -4 0 -14 16 -22 35 -19 45 -24 44 -20 -5 2 -22 -1 -40 -5 -40
-5 0 -9 27 -8 60 0 33 4 60 8 60 4 0 18 -19 31 -41z m450 29 c27 -22 30 -53 7
-81 -11 -15 -28 -27 -37 -27 -13 0 -12 3 6 16 14 9 22 26 22 43 0 53 -51 71
-72 25 -10 -22 -9 -31 5 -57 l18 -30 -23 15 c-29 19 -35 64 -12 89 20 22 63
25 86 7z m125 4 c7 -4 12 -21 11 -37 -1 -17 1 -40 6 -52 10 -31 -12 -30 -23 1
-5 13 -18 27 -28 31 -16 6 -16 8 5 16 30 11 24 33 -11 37 -26 3 -26 2 -23 -52
2 -42 0 -56 -10 -56 -10 0 -14 16 -14 60 l0 60 38 0 c20 0 43 -4 49 -8z m133
-9 c0 -13 -3 -14 -12 -5 -22 22 -28 12 -28 -44 0 -39 -4 -54 -12 -52 -8 3 -11
23 -9 56 3 55 1 58 -30 42 -10 -6 -19 -7 -19 -2 0 17 14 22 62 22 38 0 48 -3
48 -17z m50 -3 c-24 -24 -25 -38 -4 -68 23 -33 60 -26 57 10 -1 20 2 25 13 21
20 -8 17 -41 -5 -53 -30 -16 -59 -12 -81 10 -27 27 -26 65 2 84 32 22 42 20
18 -4z m70 10 c8 -5 11 -12 8 -15 -4 -4 -17 0 -30 9 -24 17 -5 23 22 6z m109
-47 c17 -31 29 -58 26 -61 -8 -9 -35 8 -35 22 0 7 -7 27 -15 42 -8 16 -15 26
-15 22 0 -5 1 -10 3 -12 1 -2 -5 -12 -14 -22 -9 -11 -19 -28 -23 -38 -3 -10
-9 -16 -12 -13 -5 5 44 117 51 117 2 0 17 -26 34 -57z m146 46 c11 -17 -2 -21
-24 -7 -31 19 -56 0 -56 -43 0 -26 6 -36 25 -46 23 -12 23 -13 4 -13 -48 0
-74 69 -38 104 17 18 79 22 89 5z m120 1 c4 -7 -8 -8 -35 -4 l-41 7 4 -57 c3
-39 1 -56 -7 -53 -6 2 -12 29 -14 60 l-3 57 45 0 c25 0 48 -5 51 -10z m45 -21
c0 -10 -4 -19 -10 -19 -5 0 -10 12 -10 26 0 14 4 23 10 19 6 -3 10 -15 10 -26z
m-1700 -17 c0 -13 -12 -22 -22 -16 -10 6 -1 24 13 24 5 0 9 -4 9 -8z m107 -19
c-3 -3 -11 -2 -17 2 -9 6 -9 10 1 16 14 8 27 -7 16 -18z m1533 12 c0 -9 -6
-12 -16 -8 -13 5 -13 7 -2 14 17 11 18 11 18 -6z m-100 -30 c0 -12 -7 -26 -16
-29 -12 -5 -15 -2 -10 10 3 8 6 25 6 35 0 11 5 17 10 14 6 -3 10 -17 10 -30z
m-1526 -20 c-4 -8 -12 -15 -20 -15 -17 0 -18 17 -1 23 22 9 27 7 21 -8z m111
-4 c-3 -6 -14 -11 -23 -11 -15 1 -15 2 2 15 21 16 32 13 21 -4z m1527 -3 c-6
-6 -15 -8 -19 -4 -4 4 -1 11 7 16 19 12 27 3 12 -12z"/>
<path d="M1525 1460 c-19 -8 -19 -9 2 -9 12 -1 25 4 28 9 7 12 -2 12 -30 0z"/>
<path d="M1580 1457 c0 -3 12 -12 26 -22 15 -9 23 -12 20 -6 -7 11 -46 35 -46
28z"/>
<path d="M1446 1441 c-3 -5 -16 -7 -29 -5 l-22 5 22 -10 c12 -5 32 -24 44 -41
13 -16 34 -38 48 -47 16 -10 10 0 -16 27 -50 51 -53 67 -15 73 l27 4 -27 2
c-15 0 -29 -3 -32 -8z"/>
<path d="M1640 1413 c0 -5 21 -19 48 -32 52 -25 47 -16 -10 18 -21 13 -38 19
-38 14z"/>
<path d="M1119 1393 c-13 -16 -12 -17 3 -5 14 11 22 10 50 -3 26 -14 30 -14
18 -2 -25 25 -56 29 -71 10z"/>
<path d="M1590 1400 c0 -4 8 -14 17 -21 9 -8 14 -9 10 -2 -4 6 -2 13 5 15 7 3
2 7 -10 10 -12 4 -22 3 -22 -2z"/>
<path d="M620 1391 c12 -8 11 -14 -10 -38 -14 -15 -28 -29 -33 -31 -9 -5 1
-22 14 -22 5 0 9 8 9 18 0 19 34 55 60 65 12 4 12 6 -2 6 -9 1 -25 4 -35 7
-15 5 -15 4 -3 -5z"/>
<path d="M1009 1391 c8 -5 10 -14 6 -22 -6 -11 -5 -11 5 -2 14 12 6 33 -13 33
-8 0 -7 -3 2 -9z"/>
<path d="M1523 1392 c-8 -5 -4 -11 13 -19 21 -10 23 -9 13 8 -11 22 -10 21
-26 11z"/>
<path d="M566 1374 c-6 -15 -4 -15 11 -3 10 7 20 15 22 16 2 2 -3 3 -11 3 -9
0 -19 -7 -22 -16z"/>
<path d="M718 1378 c9 -9 8 -16 -5 -32 -16 -19 -15 -19 6 0 23 21 22 44 -2 44
-8 0 -8 -3 1 -12z"/>
<path d="M790 1367 c14 -7 25 -21 25 -32 0 -11 4 -26 8 -33 5 -7 0 -25 -13
-45 l-22 -32 26 30 c28 33 31 46 15 62 -8 8 -8 13 0 18 13 8 -29 45 -51 45 -7
0 -2 -6 12 -13z"/>
<path d="M1360 1360 c0 -5 5 -10 10 -10 6 0 10 5 10 10 0 6 -4 10 -10 10 -5 0
-10 -4 -10 -10z"/>
<path d="M1630 1366 c0 -3 14 -12 30 -21 17 -9 30 -13 30 -11 0 3 -13 12 -30
21 -16 9 -30 13 -30 11z"/>
<path d="M762 1339 c-7 -11 -9 -25 -5 -32 4 -7 10 0 15 18 9 36 6 40 -10 14z"/>
<path d="M1206 1348 c4 -7 9 -23 10 -36 4 -33 14 -40 25 -19 6 9 14 15 20 12
5 -4 9 -1 9 5 0 6 -10 8 -26 4 -23 -6 -25 -4 -20 13 4 14 1 23 -9 27 -11 4
-14 2 -9 -6z"/>
<path d="M1750 1355 c0 -7 61 -37 66 -33 2 3 -12 12 -31 21 -19 9 -35 15 -35
12z"/>
<path d="M532 1330 c-13 -21 -48 -27 -54 -9 -2 5 -15 -2 -28 -18 -16 -17 -18
-22 -5 -12 13 11 31 15 52 12 25 -4 34 -1 43 17 15 28 8 36 -8 10z"/>
<path d="M940 1338 c0 -4 5 -10 10 -13 6 -4 8 -12 4 -18 -3 -7 1 -4 9 6 8 9
19 17 25 17 6 0 13 4 17 9 3 5 -10 9 -30 8 -19 -1 -35 -5 -35 -9z"/>
<path d="M1730 1310 c8 -5 20 -10 25 -10 6 0 3 5 -5 10 -8 5 -19 10 -25 10 -5
0 -3 -5 5 -10z"/>
<path d="M1855 1305 c17 -8 37 -14 45 -14 8 0 -1 7 -20 14 -46 18 -64 17 -25
0z"/>
<path d="M1018 1303 c7 -3 16 -2 19 1 4 3 -2 6 -13 5 -11 0 -14 -3 -6 -6z"/>
<path d="M394 1258 l-19 -23 23 19 c21 18 27 26 19 26 -2 0 -12 -10 -23 -22z"/>
<path d="M469 1263 c-13 -16 -12 -17 4 -4 16 13 21 21 13 21 -2 0 -10 -8 -17
-17z"/>
<path d="M745 1240 c-22 -25 -50 -27 -41 -4 6 15 4 15 -10 3 -14 -12 -14 -14
1 -25 20 -15 44 -4 64 27 15 25 9 24 -14 -1z"/>
<path d="M930 1250 c0 -5 5 -10 10 -10 6 0 10 5 10 10 0 6 -4 10 -10 10 -5 0
-10 -4 -10 -10z"/>
<path d="M330 1209 c-35 -31 -35 -31 -3 -9 18 11 35 25 38 30 10 16 2 11 -35
-21z"/>
<path d="M820 1230 c-9 -6 -10 -10 -3 -10 6 0 15 5 18 10 8 12 4 12 -15 0z"/>
<path d="M765 1210 c-3 -5 -1 -10 4 -10 6 0 11 5 11 10 0 6 -2 10 -4 10 -3 0
-8 -4 -11 -10z"/>
<path d="M945 1190 c-3 -5 1 -10 9 -10 8 0 18 5 21 10 3 6 -1 10 -9 10 -8 0
-18 -4 -21 -10z"/>
<path d="M605 1143 l-30 -14 30 6 c31 7 41 12 34 19 -2 2 -17 -3 -34 -11z"/>
<path d="M660 1121 c-9 -9 -27 -24 -40 -34 -14 -10 -2 -6 25 9 61 33 58 31 43
36 -7 3 -20 -3 -28 -11z"/>
<path d="M768 975 c-22 -49 25 -98 60 -63 13 13 16 47 6 72 -10 26 -53 20 -66
-9z"/>
</g>
</svg>
