<?xml version="1.0" standalone="no"?>
<!DOCTYPE svg PUBLIC "-//W3C//DTD SVG 20010904//EN"
 "http://www.w3.org/TR/2001/REC-SVG-20010904/DTD/svg10.dtd">
<svg version="1.0" xmlns="http://www.w3.org/2000/svg"
 width="200.000000pt" height="200.000000pt" viewBox="0 0 200.000000 200.000000"
 preserveAspectRatio="xMidYMid meet">

<g transform="translate(0.000000,200.000000) scale(0.100000,-0.100000)"
fill="#000000" stroke="none">
<path d="M990 1487 c-34 -17 -50 -53 -50 -114 l0 -53 50 0 50 0 0 45 c0 45 0
45 35 45 l35 0 0 -130 c0 -123 -1 -130 -20 -130 -17 0 -20 -7 -20 -50 l0 -50
49 0 c42 0 53 4 70 26 19 25 21 40 21 195 0 92 -3 175 -6 184 -11 27 -60 45
-126 45 -35 0 -74 -6 -88 -13z"/>
<path d="M1258 881 c-71 -23 -108 -74 -108 -151 0 -79 37 -129 113 -151 74
-22 175 34 193 107 10 39 -1 109 -22 137 -38 50 -117 76 -176 58z m86 -51 c30
-11 66 -65 66 -98 0 -63 -64 -119 -125 -108 -51 10 -80 48 -80 108 0 43 4 53
33 79 34 30 63 36 106 19z"/>
<path d="M220 730 l0 -150 25 0 c24 0 25 2 25 65 l0 65 75 0 75 0 0 -65 c0
-63 1 -65 25 -65 l25 0 0 150 0 150 -25 0 c-24 0 -25 -3 -25 -60 l0 -60 -75 0
-75 0 0 60 c0 57 -1 60 -25 60 l-25 0 0 -150z"/>
<path d="M531 783 c0 -112 13 -158 50 -186 38 -27 120 -28 157 0 44 32 52 59
52 176 l0 107 -25 0 -25 0 0 -104 c0 -84 -3 -108 -17 -125 -27 -32 -73 -37
-106 -11 -26 21 -27 24 -27 131 l0 109 -30 0 -30 0 1 -97z"/>
<path d="M860 730 l0 -150 25 0 c24 0 25 3 25 55 0 54 0 55 30 55 24 0 37 -10
71 -55 34 -45 47 -55 71 -55 l30 0 -41 57 c-27 38 -37 59 -29 62 34 10 58 45
58 85 -1 75 -35 96 -154 96 l-86 0 0 -150z m178 88 c19 -19 14 -55 -10 -72
-13 -9 -43 -16 -70 -16 l-48 0 0 50 0 50 58 0 c32 0 63 -5 70 -12z"/>
<path d="M1520 730 l0 -150 25 0 c24 0 24 1 27 105 l3 106 80 -106 c60 -79 86
-105 102 -105 23 0 23 1 23 150 l0 150 -25 0 c-24 0 -24 -1 -27 -101 l-3 -102
-78 102 c-61 79 -83 101 -103 101 l-24 0 0 -150z"/>
</g>
</svg>
