<?xml version="1.0" standalone="no"?>
<!DOCTYPE svg PUBLIC "-//W3C//DTD SVG 20010904//EN"
 "http://www.w3.org/TR/2001/REC-SVG-20010904/DTD/svg10.dtd">
<svg version="1.0" xmlns="http://www.w3.org/2000/svg"
 width="3840.000000pt" height="2160.000000pt" viewBox="0 0 3840.000000 2160.000000"
 preserveAspectRatio="xMidYMid meet">

<g transform="translate(0.000000,2160.000000) scale(0.100000,-0.100000)"
fill="#000000" stroke="none">
<path d="M16530 19801 l-2655 -1568 -3 -1577 -2 -1576 47 29 c127 77 5258
3103 5268 3107 7 3 1210 -702 2673 -1565 1464 -864 2666 -1571 2672 -1571 7 0
10 513 10 1574 0 1490 -1 1574 -17 1579 -10 2 -1212 709 -2671 1571 -1460 861
-2657 1566 -2660 1565 -4 0 -1202 -706 -2662 -1568z"/>
<path d="M13873 8563 c3 -4240 -2 -3887 58 -4298 104 -707 334 -1337 686
-1878 401 -617 996 -1146 1713 -1524 676 -357 1552 -583 2403 -620 81 -3 147
-10 147 -15 0 -4 131 -8 290 -8 160 0 290 4 290 8 0 5 66 12 148 15 595 26
1252 154 1787 347 867 314 1654 866 2161 1516 417 535 698 1166 848 1904 58
288 102 648 113 938 3 94 10 172 15 172 4 0 8 1645 8 3655 l0 3655 -1405 0
-1405 0 0 -3560 c0 -3910 3 -3686 -60 -4000 -161 -804 -636 -1435 -1335 -1775
-250 -122 -496 -199 -770 -241 -150 -23 -569 -27 -710 -6 -586 88 -1079 327
-1461 710 -377 376 -603 842 -707 1452 l-21 125 -3 3648 -3 3647 -1395 0
-1395 0 3 -3867z"/>
</g>
</svg>
