<?xml version="1.0" standalone="no"?>
<!DOCTYPE svg PUBLIC "-//W3C//DTD SVG 20010904//EN"
 "http://www.w3.org/TR/2001/REC-SVG-20010904/DTD/svg10.dtd">
<svg version="1.0" xmlns="http://www.w3.org/2000/svg"
 width="200.000000pt" height="200.000000pt" viewBox="0 0 200.000000 200.000000"
 preserveAspectRatio="xMidYMid meet">

<g transform="translate(0.000000,200.000000) scale(0.100000,-0.100000)"
fill="#000000" stroke="none">
<path d="M180 1209 c0 -17 4 -28 10 -24 6 3 10 13 10 21 0 8 5 14 10 14 6 0
10 5 10 10 0 6 -9 10 -20 10 -16 0 -20 -7 -20 -31z"/>
<path d="M360 1091 c26 -21 40 -19 40 5 0 9 -11 14 -32 14 l-33 0 25 -19z"/>
<path d="M50 1042 c0 -18 6 -22 30 -22 17 0 30 5 30 10 0 6 -8 10 -18 10 -10
0 -23 5 -30 12 -9 9 -12 7 -12 -10z"/>
<path d="M241 924 c-15 -33 -14 -34 9 -34 15 0 20 7 20 24 0 35 -15 40 -29 10z"/>
<path d="M410 936 c0 -29 72 -261 83 -268 35 -22 55 9 92 145 41 148 39 137
21 137 -9 0 -24 -39 -46 -117 -40 -150 -38 -145 -48 -139 -5 3 -24 62 -43 131
-20 75 -39 125 -46 125 -7 0 -13 -6 -13 -14z"/>
<path d="M1350 810 c0 -118 2 -140 15 -140 13 0 15 22 15 140 0 118 -2 140
-15 140 -13 0 -15 -22 -15 -140z"/>
<path d="M1450 810 c0 -118 2 -140 15 -140 13 0 15 22 15 140 0 118 -2 140
-15 140 -13 0 -15 -22 -15 -140z"/>
<path d="M1010 895 c0 -18 -5 -25 -20 -25 -11 0 -20 -4 -20 -10 0 -5 9 -10 20
-10 18 0 20 -7 20 -77 0 -90 6 -103 45 -106 34 -2 46 20 13 25 -21 3 -23 8
-26 81 -3 77 -3 77 23 77 14 0 25 5 25 10 0 6 -11 10 -25 10 -20 0 -25 5 -25
25 0 16 -6 25 -15 25 -9 0 -15 -9 -15 -25z"/>
<path d="M674 865 c-37 -16 -44 -31 -44 -100 0 -83 26 -103 128 -97 54 3 36
22 -21 22 -58 0 -77 12 -77 47 0 22 4 23 65 23 l65 0 0 34 c0 63 -56 97 -116
71z m74 -27 c7 -7 12 -22 12 -35 0 -21 -4 -23 -50 -23 -46 0 -50 2 -50 25 0
38 60 61 88 33z"/>
<path d="M917 873 c-4 -3 -20 -6 -37 -5 l-30 1 0 -100 c0 -81 3 -99 15 -99 12
0 15 16 15 85 l0 86 30 6 c17 3 30 12 30 19 0 15 -12 19 -23 7z"/>
<path d="M1179 869 c-32 -12 -49 -47 -49 -99 0 -80 42 -116 121 -104 55 9 48
24 -10 24 -53 0 -81 17 -81 51 0 17 8 19 71 19 l72 0 -6 37 c-10 62 -62 93
-118 72z m75 -41 c28 -39 21 -48 -39 -48 -48 0 -55 3 -55 19 0 48 67 68 94 29z"/>
<path d="M1790 867 c-39 -20 -34 -65 10 -94 68 -43 74 -49 67 -66 -5 -13 -19
-17 -57 -17 -57 0 -67 -15 -15 -23 44 -7 92 9 100 33 9 29 -10 55 -60 85 -61
35 -58 59 8 63 54 4 62 17 16 26 -41 8 -40 8 -69 -7z"/>
<path d="M1550 787 c0 -96 12 -120 56 -119 16 1 46 2 67 3 l37 1 0 99 c0 81
-3 99 -15 99 -12 0 -15 -16 -15 -85 l0 -84 -35 -7 c-60 -11 -65 -5 -65 91 0
69 -3 85 -15 85 -12 0 -15 -16 -15 -83z"/>
</g>
</svg>
